<svg width="20" height="20" viewBox="0 0 20 20" fill="none" xmlns="http://www.w3.org/2000/svg">
<path fill-rule="evenodd" clip-rule="evenodd" d="M20 10C20 15.5228 15.5228 20 10 20C4.47715 20 0 15.5228 0 10C0 4.47715 4.47715 0 10 0C15.5228 0 20 4.47715 20 10ZM15 14.0455C15 14.4808 14.6458 14.835 14.2105 14.835C9.13158 14.835 5 10.7034 5 5.62443C5 5.18917 5.35421 4.83496 5.78947 4.83496H7.63158C8.06684 4.83496 8.42105 5.18917 8.42105 5.62443C8.42004 6.23482 8.51671 6.84143 8.70737 7.42128C8.8 7.71549 8.72211 8.02128 8.50526 8.22233L7.75368 8.97865C8.46528 10.2883 9.54111 11.3638 10.8511 12.075L11.6089 11.3171C11.7127 11.2156 11.8421 11.1443 11.9833 11.1107C12.1245 11.077 12.2721 11.0823 12.4105 11.126C12.9895 11.3171 13.5947 11.4139 14.2105 11.4139C14.6458 11.4139 15 11.7681 15 12.2034V14.0455Z" fill="#1D2329"/>
</svg>
