<svg width="20" height="20" viewBox="0 0 20 20" fill="none" xmlns="http://www.w3.org/2000/svg">
<path d="M10.0143 12.8364C11.6488 12.8364 12.9739 11.5524 12.9739 9.96852C12.9739 8.3846 11.6488 7.10059 10.0143 7.10059C8.37974 7.10059 7.05469 8.3846 7.05469 9.96852C7.05469 11.5524 8.37974 12.8364 10.0143 12.8364Z" fill="#1D2329"/>
<path d="M14.5949 10.1277C14.5949 12.5791 12.544 14.566 10.014 14.566C7.4841 14.566 5.43316 12.5791 5.43316 10.1277C5.43316 9.68845 5.49945 9.2641 5.62221 8.86328H4.26855V15.0888C4.26855 15.4112 4.53208 15.6745 4.85433 15.6745H15.117C15.4395 15.6745 15.7032 15.4112 15.7032 15.0888V8.86328H14.4058C14.5284 9.2641 14.5949 9.68845 14.5949 10.1277Z" fill="#1D2329"/>
<path d="M13.3676 7.18354H15.0333C15.3983 7.18354 15.6966 6.88523 15.6966 6.52022V4.93208C15.6966 4.56687 15.3983 4.26855 15.0333 4.26855H13.3676C13.0024 4.26855 12.7041 4.56687 12.7041 4.93208V6.52022C12.7039 6.88502 13.0024 7.18354 13.3676 7.18354Z" fill="#1D2329"/>
<path d="M10 0C4.47714 0 0 4.47714 0 10C0 15.5229 4.47714 20 10 20C15.5229 20 20 15.5229 20 10C20 4.47714 15.5229 0 10 0ZM15.4772 17.369H4.52297C3.48215 17.369 2.6312 16.5987 2.6312 15.4776V4.52276C2.6312 3.40133 3.48215 2.6312 4.52297 2.6312H15.4772C16.5179 2.6312 17.369 3.40133 17.369 4.52276V15.4776C17.369 16.5987 16.5176 17.369 15.4772 17.369Z" fill="#1D2329"/>
</svg>
