<svg width="20" height="20" viewBox="0 0 20 20" fill="none" xmlns="http://www.w3.org/2000/svg">
<path fill-rule="evenodd" clip-rule="evenodd" d="M20 10C20 15.5228 15.5228 20 10 20C4.47715 20 0 15.5228 0 10C0 4.47715 4.47715 0 10 0C15.5228 0 20 4.47715 20 10ZM10.2253 10.9916C10.0938 11.0994 9.90444 11.0994 9.77285 10.9916L5 7.05951V13.2145C5 13.4118 5.1599 13.5717 5.35715 13.5717H14.6428C14.8401 13.5717 15 13.4118 15 13.2145V7.11237L10.2253 10.9916ZM5.35725 6.42849H14.643C14.6607 6.4306 14.6783 6.43418 14.6955 6.4392L10.0001 10.2528L5.35725 6.42849Z" fill="#1D2329"/>
</svg>
