<svg width="20" height="20" viewBox="0 0 20 20" fill="none" xmlns="http://www.w3.org/2000/svg">
<path fill-rule="evenodd" clip-rule="evenodd" d="M20 10C20 15.5228 15.5228 20 10 20C4.47715 20 0 15.5228 0 10C0 4.47715 4.47715 0 10 0C15.5228 0 20 4.47715 20 10ZM10 10.0036C8.84125 10.0036 7.89011 9.0997 7.89011 7.91781C7.89011 6.73592 8.84125 5.83201 10 5.83201C11.1588 5.83201 12.1099 6.73592 12.1099 7.91781C12.1099 9.0997 11.1588 10.0036 10 10.0036ZM10.3965 14.5816C11.1057 13.7361 14 10.1606 14 7.91781C14 5.74795 12.2154 4 10 4C7.78462 4 6 5.74795 6 7.91781C6 10.1723 8.92445 13.7733 9.61436 14.5725C9.68991 14.66 9.73866 14.7139 9.75385 14.7288L10 15L10.2462 14.7589L10.2589 14.7439C10.2829 14.716 10.3301 14.6607 10.3965 14.5816Z" fill="#1D2329"/>
</svg>
