<svg width="20" height="20" viewBox="0 0 20 20" fill="none" xmlns="http://www.w3.org/2000/svg">
<path fill-rule="evenodd" clip-rule="evenodd" d="M10.0135 20C15.5333 20 20 15.5394 20 10.0145C20 5.84182 17.4755 2.27319 13.8692 0.776789C12.0942 1.17988 10.763 2.79105 10.763 4.74812V4.89188C13.5651 5.49591 14.9794 7.42439 14.9794 10.0145C14.9794 12.8921 12.677 15.2519 9.90299 15.2519C7.10128 15.2519 4.49398 12.8345 4.49398 9.2663C4.49398 4.89228 8.12596 0.805783 13.2578 0.690613C13.6478 0.690613 13.51 0.690613 13.6478 0.690613C12.4864 0.238109 11.2557 0.00419935 10.0142 0C4.46626 0 1.02346e-07 4.48919 1.02346e-07 10.0149C-0.000780645 15.5394 4.46548 20 10.0135 20Z" fill="#1D2329"/>
</svg>
