<svg width="20" height="20" viewBox="0 0 20 20" fill="none" xmlns="http://www.w3.org/2000/svg">
<path d="M19.9145 9.99536C19.9142 10.4731 19.8777 10.9526 19.8042 11.4302C19.5013 13.5276 18.5251 15.4761 17.0171 16.9924C15.5091 18.509 13.5479 19.5149 11.4178 19.864C11.1368 19.9111 10.8521 19.9402 10.5711 19.9727H10.3973C10.1984 19.9888 9.99883 19.9978 9.79962 19.9993C9.41565 19.9966 9.03679 19.9724 8.66421 19.928C8.60845 19.9204 8.5523 19.9124 8.49667 19.9038C7.5057 19.7151 6.64786 19.1929 7.0435 17.8796C7.0694 17.7964 7.09527 17.72 7.12484 17.6404C7.44261 16.7517 7.85926 15.9001 8.36726 15.1011V15.072L8.43384 14.9741C8.8506 14.3547 9.32467 13.7742 9.85004 13.2402C10.36 12.7368 10.9062 12.27 11.4844 11.8435C11.9022 11.5491 12.3381 11.28 12.7897 11.0383C12.9567 10.9651 13.1375 10.9275 13.3203 10.9275C13.5032 10.9275 13.684 10.9651 13.851 11.0383C14.0791 11.2053 14.3386 11.3267 14.6146 11.395C14.8907 11.4636 15.1778 11.478 15.4594 11.4373C15.9888 11.3765 16.4781 11.1304 16.8378 10.7446C17.1975 10.3589 17.4036 9.85889 17.4184 9.33618C17.4332 8.81348 17.2557 8.30322 16.9184 7.89819C16.5811 7.49341 16.1065 7.22119 15.5814 7.13159C15.4777 7.10474 15.3707 7.09253 15.2634 7.09521C15.0685 7.08716 14.8733 7.10425 14.6829 7.146C14.4981 7.18677 14.3191 7.25 14.1504 7.33472C13.8638 7.47144 13.612 7.66968 13.4137 7.91455C13.2153 8.15918 13.0754 8.44458 13.0042 8.74927C12.9741 8.91504 12.8993 9.06982 12.7874 9.19751C12.6755 9.3252 12.5307 9.4209 12.3682 9.47485C11.8758 9.60596 11.3958 9.77832 10.9335 9.98999C10.3854 10.2166 9.85188 10.4758 9.33606 10.7664L9.29908 10.7881C9.1105 10.8933 8.92561 11.0056 8.74073 11.1218C8.74073 11.1218 5.72711 12.9246 4.24804 15.4238L4.01142 15.7866C2.60261 17.6729 0.931225 15.8665 1.86305 12.7395C1.86996 12.7102 1.87859 12.6812 1.88892 12.6526C1.9148 12.6235 1.91481 12.5945 1.91481 12.5654L1.93699 12.5039C2.08148 12.0691 2.24812 11.6416 2.43621 11.2234C2.55083 10.9695 2.66177 10.741 2.80598 10.4761C2.95018 10.2112 3.10179 9.95361 3.26449 9.70337C3.77531 8.948 4.34787 8.23486 4.97651 7.57056C5.26863 7.28027 5.57923 7.00098 5.90094 6.73608C5.93503 6.71094 5.97229 6.69019 6.01184 6.67456C6.12018 6.62915 6.23959 6.61523 6.35575 6.63452C6.4274 6.65234 6.49347 6.68726 6.54804 6.73608C6.71674 6.86768 6.90189 6.97729 7.09897 7.06274C7.26101 7.14966 7.43557 7.21191 7.61666 7.24756C7.7754 7.29077 7.94094 7.3042 8.10474 7.2876C8.35737 7.27954 8.60707 7.23169 8.84427 7.146C9.24816 7.00684 9.60164 6.75464 9.86115 6.42065V6.39868L9.91662 6.32275C10.2351 5.86255 10.367 5.30249 10.2864 4.75195C10.2319 4.39746 10.0889 4.06152 9.87026 3.77417C9.65157 3.48682 9.36392 3.25708 9.03287 3.10498C8.65514 2.92603 8.23191 2.86035 7.8163 2.9165C7.34963 2.95459 6.90931 3.14453 6.56505 3.45605C6.22079 3.76733 5.99225 4.18262 5.91569 4.63574V4.66479C5.89355 4.81006 5.83814 4.94873 5.75361 5.06982C5.66907 5.19116 5.55761 5.29199 5.42762 5.36499C4.98218 5.53711 4.55182 5.74438 4.14084 5.98535C3.77106 6.18848 3.41238 6.40967 3.0685 6.64551C2.24421 7.18555 1.49795 7.83228 0.849884 8.56812L0.816615 8.60791L0.727872 8.70215V8.70215C0.258231 9.18887 -0.0553282 8.32962 0.102148 7.67185C1.1477 3.30464 5.07007 0.0487823 9.76442 0C10.4999 0.00756836 11.237 0.0952148 11.9614 0.264648C13.2624 0.543213 14.4927 1.07642 15.5786 1.83252C16.6645 2.58862 17.5836 3.552 18.2808 4.66479L18.3251 4.73022C19.3145 6.22314 19.8571 7.94507 19.9102 9.70312C19.913 9.80029 19.9145 9.89771 19.9145 9.99536Z" fill="#1D2329"/>
</svg>
