<svg width="20" height="20" viewBox="0 0 20 20" fill="none" xmlns="http://www.w3.org/2000/svg">
<path d="M5.25293 10.738H6.04577V15.0291H6.79585V10.738H7.60342V10.0352H5.25293V10.738Z" fill="#1D2329"/>
<path d="M11.5957 11.2628C11.3477 11.2628 11.1163 11.3982 10.8988 11.6663V10.0352H10.2246V15.0293H10.8988V14.6688C11.1245 14.9473 11.3557 15.0807 11.5957 15.0807C11.8639 15.0807 12.0444 14.9395 12.1344 14.6625C12.1796 14.5047 12.2027 14.2569 12.2027 13.9126V12.4309C12.2027 12.0785 12.1796 11.8326 12.1344 11.683C12.0446 11.404 11.8637 11.2628 11.5957 11.2628ZM11.5281 13.9654C11.5281 14.3018 11.4295 14.4675 11.2347 14.4675C11.124 14.4675 11.0113 14.4145 10.8986 14.3016V12.0337C11.0113 11.9222 11.124 11.8694 11.2347 11.8694C11.4293 11.8694 11.5281 12.0417 11.5281 12.3773V13.9654Z" fill="#1D2329"/>
<path d="M8.9668 14.1514C8.81724 14.3628 8.67586 14.4669 8.54041 14.4669C8.45038 14.4669 8.39903 14.4139 8.38266 14.3092C8.37652 14.2875 8.37652 14.2052 8.37652 14.0473V11.3076H7.70215V14.2496C7.70215 14.5125 7.72486 14.6901 7.76169 14.8031C7.82941 14.9917 7.97918 15.0801 8.19606 15.0801C8.44425 15.0801 8.69877 14.9303 8.9668 14.623V15.0289H9.64159V11.3076H8.9668V14.1514Z" fill="#1D2329"/>
<path d="M9.54505 7.87018C9.76459 7.87018 9.86996 7.69606 9.86996 7.34824V5.76645C9.86996 5.41842 9.76459 5.24512 9.54505 5.24512C9.3253 5.24512 9.21973 5.41862 9.21973 5.76645V7.34824C9.21973 7.69627 9.3253 7.87018 9.54505 7.87018Z" fill="#1D2329"/>
<path d="M10 0C4.47714 0 0 4.47714 0 10C0 15.5229 4.47714 20 10 20C15.5229 20 20 15.5229 20 10C20 4.47714 15.5229 0 10 0ZM11.1122 4.67724H11.7917V7.44593C11.7917 7.60573 11.7917 7.68859 11.7999 7.7109C11.8148 7.81647 11.8684 7.87049 11.9597 7.87049C12.096 7.87049 12.239 7.76491 12.3902 7.55151V4.67724H13.0715V8.43765H12.3902V8.02762C12.1189 8.33862 11.8603 8.48941 11.6117 8.48941C11.3923 8.48941 11.2409 8.40041 11.1726 8.21013C11.1349 8.09616 11.1122 7.91632 11.1122 7.65095V4.67724ZM8.53872 5.90343C8.53872 5.50138 8.60706 5.20757 8.75192 5.01749C8.94036 4.76031 9.20573 4.63182 9.54537 4.63182C9.88665 4.63182 10.1518 4.76031 10.3403 5.01749C10.4831 5.20737 10.5514 5.50138 10.5514 5.90343V7.22026C10.5514 7.62005 10.4831 7.91652 10.3403 8.10455C10.1518 8.36112 9.88665 8.48941 9.54537 8.48941C9.20573 8.48941 8.94036 8.36112 8.75192 8.10455C8.60706 7.91652 8.53872 7.61985 8.53872 7.22026V5.90343ZM6.71652 3.39151L7.25299 5.37309L7.76839 3.39151H8.53258L7.62353 6.39407V8.43785H6.86813V6.39407C6.79959 6.03192 6.64839 5.50138 6.40593 4.79754C6.24675 4.32921 6.08082 3.85944 5.92164 3.39151H6.71652ZM15.3833 15.3577C15.2466 15.9509 14.7615 16.3887 14.1774 16.454C12.7937 16.6085 11.394 16.6093 9.99939 16.6085C8.60542 16.6093 7.20491 16.6085 5.82159 16.454C5.23744 16.3887 4.75212 15.9511 4.61586 15.3577C4.42128 14.5129 4.42128 13.5904 4.42128 12.7204C4.42128 11.8504 4.42373 10.9281 4.61811 10.0831C4.75458 9.48972 5.23949 9.05187 5.82363 8.9868C7.20716 8.83233 8.60747 8.83151 10.0018 8.83233C11.3958 8.83151 12.7961 8.83233 14.1796 8.9868C14.7638 9.05207 15.2491 9.48972 15.386 10.0831C15.5799 10.9281 15.5787 11.8504 15.5787 12.7204C15.5787 13.5904 15.5779 14.5129 15.3833 15.3577Z" fill="#1D2329"/>
<path d="M13.7434 11.2622C13.3984 11.2622 13.1306 11.3889 12.9358 11.6436C12.7928 11.8318 12.7275 12.1228 12.7275 12.5203V13.8238C12.7275 14.2193 12.8006 14.5123 12.9442 14.6987C13.1388 14.9528 13.4074 15.0799 13.7602 15.0799C14.1123 15.0799 14.3887 14.9467 14.5753 14.6764C14.6572 14.5569 14.7104 14.4217 14.7329 14.2723C14.7392 14.2048 14.7472 14.0553 14.7472 13.8378V13.7398H14.0595C14.0595 14.0098 14.0507 14.1598 14.0448 14.1964C14.0063 14.3767 13.9093 14.4667 13.7434 14.4667C13.5118 14.4667 13.3984 14.2948 13.3984 13.9507V13.2906H14.7472V12.5199C14.7472 12.1224 14.6799 11.8314 14.5385 11.6432C14.35 11.3891 14.0818 11.2622 13.7434 11.2622ZM14.0732 12.7296H13.3988V12.3853C13.3988 12.0411 13.512 11.8691 13.7373 11.8691C13.9603 11.8691 14.0732 12.0413 14.0732 12.3853V12.7296Z" fill="#1D2329"/>
</svg>
